<svg version="1.1" id="Layer_1" xmlns="http://www.w3.org/2000/svg" xmlns:xlink="http://www.w3.org/1999/xlink" x="0px" y="0px"
	 width="100%" viewBox="0 0 624 528" enable-background="new 0 0 624 528" xml:space="preserve">
<path fill="#000000" opacity="1.000000" stroke="none" 
	d="
M367.660583,253.000488 
	C367.655762,247.168823 367.545868,241.834198 367.686890,236.506210 
	C367.768280,233.431015 366.428436,231.895218 363.511292,231.343399 
	C360.349121,230.745209 359.680725,232.390610 359.099854,235.128006 
	C358.335510,238.729767 354.587189,240.317444 352.544678,243.097488 
	C349.954590,246.622726 346.763977,246.399323 343.236633,245.143555 
	C340.747284,244.257339 339.680450,245.097366 339.215759,247.766647 
	C338.209442,253.546967 332.910034,256.002441 329.282074,259.731171 
	C328.377899,260.660461 327.091034,259.962311 325.961456,259.663727 
	C315.502106,256.898834 305.059357,254.064590 294.556793,251.473358 
	C291.010651,250.598450 289.431030,248.776443 289.759003,245.157898 
	C289.893829,243.670868 289.792816,242.160522 289.768341,240.661285 
	C289.592224,229.874924 291.261017,231.497757 280.431976,228.437561 
	C279.151001,228.075562 277.867401,227.642914 276.555786,227.483780 
	C272.150482,226.949280 270.106079,224.755264 270.616547,220.134537 
	C270.925659,217.336441 270.472626,214.459076 270.712738,211.647263 
	C271.052551,207.667221 269.335175,205.544250 265.462250,205.422058 
	C260.823395,205.275711 262.381134,208.989777 262.376831,211.241974 
	C262.294861,254.229874 262.322449,297.217987 262.322815,340.206055 
	C262.322845,344.904663 256.704926,353.391357 252.440552,355.216370 
	C251.102692,355.788910 249.799622,355.431122 248.528793,355.103882 
	C238.058212,352.407440 227.628769,349.542542 217.117599,347.016968 
	C213.351288,346.111969 211.970856,344.285156 212.048050,340.437927 
	C212.408966,322.451324 212.201950,304.459930 212.432068,286.467743 
	C212.772675,259.835938 212.190536,233.193375 212.123032,206.555084 
	C212.048706,177.230103 212.325027,147.902206 211.972458,118.581322 
	C211.879333,110.837463 217.283142,107.658279 221.718750,103.404892 
	C222.750977,102.415070 224.245453,102.866333 225.555573,103.208153 
	C236.656906,106.104607 247.757553,109.003677 258.862793,111.885048 
	C261.282166,112.512772 262.455475,113.877487 262.344788,116.523079 
	C262.191681,120.181747 262.462341,123.858505 262.299683,127.516319 
	C262.154846,130.773132 263.605652,132.418564 266.675171,133.130402 
	C269.587128,133.805740 272.393768,135.127594 275.328033,135.471893 
	C280.436920,136.071365 281.439301,138.799393 281.465240,143.535034 
	C281.548431,158.742447 278.461426,155.426132 294.023651,159.527176 
	C299.507935,160.972443 301.061371,163.270569 301.010681,168.689041 
	C300.875702,183.122665 299.176605,179.951630 312.873199,183.889008 
	C316.705688,184.990738 320.600494,185.874588 324.437988,186.960052 
	C326.719025,187.605255 327.971008,186.882599 328.312164,184.546036 
	C329.180267,178.600143 334.302612,175.947723 338.150574,172.536499 
	C340.879181,170.117630 344.465851,173.719498 348.302490,172.765106 
	C347.586273,167.474426 352.113098,165.075668 354.755890,161.405472 
	C358.283142,156.506912 362.588165,158.742996 366.679016,159.529968 
	C368.351868,156.797333 367.583038,153.901291 369.643311,151.423889 
	C374.797272,145.226562 380.151154,143.041122 388.147369,146.111969 
	C395.565094,148.960648 403.480896,150.626343 411.286163,152.307938 
	C415.746979,153.268982 417.133362,155.352310 417.119019,159.827606 
	C416.977875,203.814590 417.030640,247.802231 417.034698,291.789673 
	C417.037384,321.281281 416.773560,350.777252 417.237000,380.261688 
	C417.366455,388.497253 411.657471,391.761444 407.055084,396.275177 
	C405.861359,397.445923 404.174377,396.552368 402.749268,396.174347 
	C392.935730,393.571167 383.185699,390.693573 373.293854,388.436218 
	C368.828278,387.417175 367.553680,385.415283 367.569946,380.964050 
	C367.725494,338.476593 367.661591,295.988342 367.660583,253.000488 
z"/>
</svg>